<svg xmlns="http://www.w3.org/2000/svg" xmlns:xlink="http://www.w3.org/1999/xlink" width="32" height="32" viewBox="0 0 512 512">
    <symbol id="flower" viewBox="0 0 512 512">
        <path fill="#f3ad44" xmlns="http://www.w3.org/2000/svg" d="M357.3,239.9c-2.4-16.4-8.7-31.9-18.4-45.3c-6.3-8.6-13.8-16.3-22.4-22.7c-13.1-9.7-28.4-16.1-44.5-18.6 c-10.5-1.7-21.3-1.7-31.8,0c-16.2,2.5-31.5,8.9-44.7,18.7c-8.5,6.4-16.1,14.1-22.4,22.7c-9.6,13.4-15.9,28.9-18.4,45.2 c-1.7,10.7-1.7,21.6,0,32.2c2.5,16.4,8.8,31.9,18.4,45.3c6.3,8.6,13.8,16.3,22.4,22.7c13.1,9.7,28.3,16.1,44.4,18.6 c10.5,1.7,21.3,1.7,31.8,0c16.2-2.5,31.5-8.9,44.7-18.7c8.6-6.4,16.1-14,22.4-22.7c9.6-13.4,15.9-28.9,18.4-45.2 C359,261.5,359,250.6,357.3,239.9 M473.2,180c-0.2,0.7-0.4,1.4-0.6,2.1c-7.2,21.4-20.7,40.2-38.6,53.9l-63.3,48.6 c-3.6,15.1-10.1,29.5-19.1,42.1c-4.8,6.6-10.3,12.7-16.3,18.2l62.6,8.7c4.4,0.6,8.9,0.9,13.4,1c14.7,0,29.2-3.4,42.4-9.9 c49.1-24.7,68.9-84.5,44.2-133.6C491.8,199.3,483.5,188.6,473.2,180 M434.5,75c-20.3-20.8-48.9-31.3-77.8-28.5 c0.3,0.7,0.7,1.3,1.1,2c7.4,15.6,11.3,32.7,11.3,50c0,5.3-0.4,10.5-1.1,15.7l-10.8,79.8c8,13.4,13.4,28.2,15.8,43.6 c1,6.1,1.5,12.3,1.4,18.5c0,2-0.1,4-0.2,6l50.4-38.7c15.4-11.8,27-27.9,33.2-46.4c3.5-10.4,5.3-21.3,5.3-32.3 C463.1,118.5,452.8,93.5,434.5,75 M275.6,436.5l-47.9-64.2c-15-3.7-29.1-10.3-41.5-19.4c-6.5-4.9-12.5-10.4-17.9-16.5l-8.6,63.4 c-0.6,4.5-0.9,9.1-0.9,13.6c0,14.9,3.3,29.5,9.7,43c22.7,48.3,80.3,69,128.6,46.3c13.1-6.2,24.7-15.2,33.9-26.5 c-0.7-0.2-1.4-0.4-2.1-0.6C307.5,468.2,289,454.6,275.6,436.5 M462.6,358.1c-0.7,0.4-1.3,0.7-2,1.1c-15.3,7.5-32.2,11.5-49.3,11.5 c-5.2,0-10.4-0.4-15.5-1.1l-78.6-11c-13.1,8.1-27.8,13.5-43,15.9c-6,1-12.1,1.5-18.2,1.5c-2,0-4-0.1-5.9-0.2l38.1,51.1 c31.6,42.8,91.9,51.8,134.7,20.2c4.1-3,8-6.4,11.6-10.1C455.1,416.1,465.4,387.2,462.6,358.1 M160.3,185.2 c4.8-6.6,10.3-12.7,16.3-18.2l-62.6-8.7c-4.4-0.6-8.9-0.9-13.4-1c-14.7,0-29.2,3.4-42.4,9.9c-49.1,24.7-68.8,84.5-44.1,133.6 c6,11.9,14.4,22.5,24.6,31.2c0.2-0.7,0.4-1.4,0.6-2.1c7.2-21.4,20.7-40.2,38.6-53.9l63.3-48.6C144.9,212.2,151.4,197.9,160.3,185.2 M143,413.6c0-5.3,0.4-10.5,1.1-15.7l10.8-79.8c-8-13.4-13.4-28.2-15.8-43.6c-1-6.1-1.5-12.3-1.4-18.5c0-2,0.1-4,0.2-6l-50.4,38.7 c-15.4,11.8-27,27.9-33.2,46.4c-3.5,10.4-5.3,21.3-5.3,32.3c-0.1,26.1,10.2,51.1,28.5,69.7c18,18.5,42.7,29,68.5,29 c3.1,0,6.2-0.2,9.3-0.5c-0.4-0.7-0.7-1.3-1.1-2C146.8,448,143,430.9,143,413.6 M236.3,75.5l47.9,64.2c15,3.7,29.1,10.3,41.5,19.4 c6.5,4.9,12.5,10.4,17.9,16.5l8.6-63.4c0.6-4.5,0.9-9.1,0.9-13.6c0-14.9-3.3-29.5-9.7-43C320.9,7.2,263.3-13.5,215,9.2 c-13.1,6.2-24.7,15.2-33.9,26.5c0.7,0.2,1.4,0.4,2.1,0.6C204.5,43.8,223,57.4,236.3,75.5 M237.8,137.5c6-1,12.1-1.5,18.2-1.5 c2,0,4,0.1,6,0.2l-38.1-51.1c-18.2-24.6-47.1-39.2-77.7-39.1C120.3,46,95.5,56.5,77.4,75c-20.6,20.8-30.9,49.8-28.1,78.9 c0.7-0.4,1.3-0.7,2-1.1c15.3-7.5,32.2-11.5,49.3-11.5c5.2,0,10.4,0.4,15.5,1.1l78.7,11.1c13.1-8.1,27.8-13.5,43-15.9"/>
    </symbol>
    <use xlink:href="#flower" x="0" y="0"/>
</svg>
