<svg xmlns="http://www.w3.org/2000/svg" xmlns:xlink="http://www.w3.org/1999/xlink" width="32" height="32" viewBox="0 0 512 512">
    <symbol id="farm" viewBox="0 0 512 512">
        <path fill="#15aab7" d="M450.1,136.9c6.4-14.7,7.6-31.2,3.4-46.7c-8.7-29.5-14.6-59.7-17.7-90.2c0,0-142.3,94.8-63.3,161.4 c6.5,5.4,14.4,9,22.7,10.3c-9.2-51.1-6.8-74.2,10.4-103.1c1-1.6,3.1-2.1,4.8-1.2c1.6,0.9,2.2,2.8,1.4,4.4c0,0,0,0,0,0.1 c-16.6,27.7-18.6,49-9.5,99.2c0.1,0.4,0.1,0.8,0,1.2c12.4,0.3,24.4-4.6,33.1-13.4C441.6,152.5,446.6,145.1,450.1,136.9 M506.8,335.7 c6.6-6,7-16.3,1-22.9c-0.3-0.3-0.6-0.7-1-1L256.1,75.7l0,0l0,0L5.3,311.9c-6.6,6-7,16.3-1,22.9c0.3,0.4,0.7,0.7,1,1l36.9,34.8 c7.2,6.6,18.2,6.6,25.3,0l175.8-165.6c7.2-6.6,18.2-6.6,25.3,0l175.8,165.6c7.2,6.6,18.2,6.6,25.3,0L506.8,335.7z M263,210.2 c-4-3.7-10.1-3.7-14,0L112.4,338.9v120.4c0.9,30,25.9,53.6,55.9,52.7h43.5V411.2c0.4-13.3,11.5-23.8,24.8-23.4h38.8 c13.3-0.4,24.4,10.1,24.8,23.4V512h43.5c30,0.9,55-22.7,55.9-52.7V338.9L263,210.2z"/>
    </symbol>
    
    <!-- Utilisation du symbole -->
    <use xlink:href="#farm" x="0" y="0"/>
</svg>
