<svg xmlns="http://www.w3.org/2000/svg" xmlns:xlink="http://www.w3.org/1999/xlink" width="32" height="32" viewBox="0 0 512 512">
    <symbol id="plant" viewBox="0 0 512 512">
        <path fill="#7dce24" xmlns="http://www.w3.org/2000/svg"  d="M342.7,457c0,0-52-68.3-115.1-9.3V319.3c272.2-7.9,251.9-191.2,269.5-205.2l0,0 c-80,19.9-286.6,15.2-287.6,204.5v121.8C146.8,340,0,383.8,0,512h512C512,334.2,342.7,423.5,342.7,457z M219.5,309.6 c0.4-3.2,0.9-7.3,1.7-11.8c1.4-4.4,3.1-9.5,5.1-14.9c2.1-5.9,5.1-11.6,8.7-17.1c3.4-6.3,7.7-12.3,12.8-18 c4.8-6.2,10.5-12.1,16.6-17.7c6.1-5.7,12.8-11.2,19.8-16.4c7.1-5,14.5-9.9,22-14.3c7.7-4.2,15.2-8.5,22.9-11.9 c7.2-3.5,14.8-6.7,22.5-9.5c6.8-2.6,13.8-5,21-7.2c14.4-4.6,29.7-7.8,45.3-9.6c0,0-16.2,7.6-39.1,19.4c-5.7,3.1-11.8,6.2-18.2,9.8 v-0.1c-6.5,3.4-12.9,7.4-19.8,11.2c-6.8,3.8-13.4,8.4-20.3,12.6c-6.7,4.4-13.5,9-20,13.8c-6.1,5-13.1,9.5-18.8,14.8 c-6,4.9-11.5,9.9-16.8,15.2c-5.1,4.9-10,9.9-14.2,15.2c-4.3,4.7-8.1,9.5-11.7,14.4c-3.1,4.7-6.3,9-9.1,12.8c-2.3,4-4.3,7.6-5.8,10.5 c-2.1,3.9-3.8,6.6-4.7,8h-0.7C218.6,317.1,218.9,314,219.5,309.6z M218.5,457L218.5,457L218.5,457L218.5,457z M5.3,164.2 c39.7,5.5,155.6,5.6,185.6,155.1C61.8,326.4,5.3,164.2,5.3,164.2z M100.2,0C145,19,288,60.2,210.5,202.8c0.3-4.4,0.4-9.5,0.4-15.4 c0-4.5,0-9.3-0.3-14.3c-0.3-5.3-1-10.6-2.3-15.9c-1.3-5.5-2.1-11.2-3.7-16.9c-1.1-5.9-2.8-11.7-5.3-17.3l-7.4-17 c-2.3-5.5-5.3-10.7-9.1-15.8c-3.3-5-6.7-9.7-10.1-14.1c-4-4.2-7.8-8-11.4-11.5c-3.1-3.2-6.8-6.1-10.9-8.8c-2.8-2.2-6-4.2-9.4-5.9 c-2.7-1.5-5.8-2.9-9-3.9l1.8,1.5c1.3,1,2.7,2.7,4.8,4.6c2.4,2.3,4.7,4.8,6.5,7.4c2.8,3.2,5.4,6.5,7.7,9.9c2.6,3.8,5.1,7.9,8.1,12 c2.4,4.5,4.5,9.4,7.2,14.2c1.3,2.4,2.7,4.9,4,7.4c1.3,2.5,2,5.3,3.1,7.9l6.4,16.1c2.4,5.4,4.3,10.9,5.5,16.4 c1.4,5.5,3.6,10.8,5,16.1c1.4,5.2,3.6,10.2,4.5,15.1c1,4.9,2.1,9.5,3.3,13.8h0.1c1.6,6,3,11.1,4.4,15.5C44.2,162,100.2,0,100.2,0z"/>
    </symbol>
    
    <!-- Utilisation du symbole -->
    <use xlink:href="#plant" x="0" y="0"/>
</svg>
