<svg id="Composant_4_29" data-name="Composant 4 – 29" xmlns="http://www.w3.org/2000/svg" xmlns:xlink="http://www.w3.org/1999/xlink" width="38" height="47" viewBox="0 0 38 47">
  <defs>
    <clipPath id="clip-path">
      <rect id="Rectangle_1102" data-name="Rectangle 1102" width="38" height="47" transform="translate(0 0.5)" fill="#f3ad44"/>
    </clipPath>
    <clipPath id="clip-path-2">
      <rect id="Rectangle_1103" data-name="Rectangle 1103" width="20" height="20" fill="#fff"/>
    </clipPath>
  </defs>
  <g id="Groupe_21" data-name="Groupe 21" transform="translate(0 -0.5)" clip-path="url(#clip-path)">
    <path id="Tracé_57" data-name="Tracé 57" d="M19,0A19.022,19.022,0,0,0,0,18.987c-.068,15.308,18.278,28,19,28.513,0,0,19.068-13.205,19-28.5A19.023,19.023,0,0,0,19,0" transform="translate(0)" fill="#f3ad44"/>
  </g>
  <g id="Groupe_29" data-name="Groupe 29" transform="translate(9 8)" clip-path="url(#clip-path-2)">
    <path id="Tracé_58" data-name="Tracé 58" d="M83.488,78.957a3.948,3.948,0,0,0-.713-1.73,4.133,4.133,0,0,0-.866-.865,3.942,3.942,0,0,0-1.724-.711,3.872,3.872,0,0,0-1.231,0,3.948,3.948,0,0,0-1.73.713,4.132,4.132,0,0,0-.865.866,3.942,3.942,0,0,0-.711,1.724,3.85,3.85,0,0,0,0,1.231,3.947,3.947,0,0,0,.713,1.73,4.133,4.133,0,0,0,.866.865,3.942,3.942,0,0,0,1.724.711,3.85,3.85,0,0,0,1.231,0,3.948,3.948,0,0,0,1.73-.713,4.133,4.133,0,0,0,.865-.866,3.942,3.942,0,0,0,.711-1.724,3.85,3.85,0,0,0,0-1.231" transform="translate(-69.795 -69.798)" fill="#fff"/>
    <path id="Tracé_59" data-name="Tracé 59" d="M172.684,89.534c-.009.027-.015.055-.024.082a4.356,4.356,0,0,1-1.495,2.058l-2.448,1.854a4.564,4.564,0,0,1-.739,1.608,4.773,4.773,0,0,1-.631.694l2.422.333a3.913,3.913,0,0,0,.52.036,3.766,3.766,0,0,0,2.4-6.666" transform="translate(-154.502 -82.662)" fill="#fff"/>
    <path id="Tracé_60" data-name="Tracé 60" d="M181.112,24a3.737,3.737,0,0,0-3.012-1.088c.013.026.028.051.041.077a4.373,4.373,0,0,1,.438,1.907,4.5,4.5,0,0,1-.042.6l-.419,3.044a4.548,4.548,0,0,1,.609,1.665,4.366,4.366,0,0,1,.056.7c0,.077-.005.153-.009.229l1.95-1.476A3.745,3.745,0,0,0,182.01,27.9a3.808,3.808,0,0,0,.206-1.235,3.737,3.737,0,0,0-1.1-2.659" transform="translate(-164.431 -21.14)" fill="#fff"/>
    <path id="Tracé_61" data-name="Tracé 61" d="M82.79,171.163l-1.854-2.448a4.562,4.562,0,0,1-1.608-.739,4.774,4.774,0,0,1-.694-.631l-.333,2.422a3.912,3.912,0,0,0-.036.52,3.766,3.766,0,0,0,6.666,2.4c-.027-.009-.055-.015-.082-.024a4.355,4.355,0,0,1-2.058-1.495" transform="translate(-72.257 -154.5)" fill="#fff"/>
    <path id="Tracé_62" data-name="Tracé 62" d="M132.563,178.1c-.026.013-.051.028-.077.041a4.373,4.373,0,0,1-1.907.438,4.5,4.5,0,0,1-.6-.042l-3.044-.419a4.547,4.547,0,0,1-1.665.61,4.366,4.366,0,0,1-.7.056c-.077,0-.153-.005-.229-.009l1.476,1.95a3.744,3.744,0,0,0,1.769,1.286,3.811,3.811,0,0,0,1.235.206,3.768,3.768,0,0,0,3.747-4.116" transform="translate(-114.793 -164.431)" fill="#fff"/>
    <path id="Tracé_63" data-name="Tracé 63" d="M6.069,79.326a4.778,4.778,0,0,1,.631-.694L4.279,78.3a3.924,3.924,0,0,0-.519-.036,3.766,3.766,0,0,0-2.4,6.666c.009-.027.015-.055.024-.082a4.355,4.355,0,0,1,1.495-2.058L5.33,80.934a4.564,4.564,0,0,1,.739-1.608" transform="translate(0 -72.255)" fill="#fff"/>
    <path id="Tracé_64" data-name="Tracé 64" d="M26.554,130.578a4.506,4.506,0,0,1,.042-.6l.419-3.044a4.548,4.548,0,0,1-.61-1.665,4.368,4.368,0,0,1-.056-.7c0-.077.005-.153.009-.229l-1.95,1.476a3.744,3.744,0,0,0-1.286,1.769,3.811,3.811,0,0,0-.206,1.235,3.774,3.774,0,0,0,3.757,3.766c.12,0,.239-.007.359-.019-.013-.026-.028-.051-.041-.078a4.372,4.372,0,0,1-.438-1.907" transform="translate(-21.158 -114.793)" fill="#fff"/>
    <path id="Tracé_65" data-name="Tracé 65" d="M91.675,2.882,93.528,5.33a4.564,4.564,0,0,1,1.608.739,4.774,4.774,0,0,1,.694.631l.333-2.422a3.913,3.913,0,0,0,.036-.52,3.766,3.766,0,0,0-6.666-2.4c.027.009.055.015.082.024a4.356,4.356,0,0,1,2.058,1.495" transform="translate(-82.663)" fill="#fff"/>
    <path id="Tracé_66" data-name="Tracé 66" d="M30.208,26.405a4.374,4.374,0,0,1,.7-.056c.077,0,.154.005.23.009l-1.476-1.95A3.745,3.745,0,0,0,27.9,23.123a3.808,3.808,0,0,0-1.235-.206,3.768,3.768,0,0,0-3.747,4.116c.026-.013.051-.028.077-.041a4.373,4.373,0,0,1,1.907-.438,4.546,4.546,0,0,1,.6.041l3.044.419a4.546,4.546,0,0,1,1.665-.61" transform="translate(-21.14 -21.158)" fill="#fff"/>
  </g>
</svg>
