<svg id="Composant_5_5" data-name="Composant 5 – 5" xmlns="http://www.w3.org/2000/svg" xmlns:xlink="http://www.w3.org/1999/xlink" width="38" height="47" viewBox="0 0 38 47">
  <defs>
    <clipPath id="clip-path">
      <rect id="Rectangle_1104" data-name="Rectangle 1104" width="38" height="47" transform="translate(0 0.5)" fill="#15aab7"/>
    </clipPath>
    <clipPath id="clip-path-2">
      <rect id="Rectangle_1097" data-name="Rectangle 1097" width="17.577" height="18.656" fill="#fff"/>
    </clipPath>
  </defs>
  <g id="Groupe_30" data-name="Groupe 30" transform="translate(0 -0.5)" clip-path="url(#clip-path)">
    <path id="Tracé_67" data-name="Tracé 67" d="M19,0A19.022,19.022,0,0,0,0,18.987c-.068,15.308,18.278,28,19,28.513,0,0,19.068-13.205,19-28.5A19.023,19.023,0,0,0,19,0" transform="translate(0)" fill="#15aab7"/>
  </g>
  <g id="Groupe_31" data-name="Groupe 31" transform="translate(9.423 6.843)">
    <g id="Groupe_8" data-name="Groupe 8" transform="translate(0 0)" clip-path="url(#clip-path-2)">
      <path id="Tracé_40" data-name="Tracé 40" d="M37.226,4.99a2.717,2.717,0,0,0,.118-1.7A18.932,18.932,0,0,1,36.736,0S31.85,3.453,34.565,5.883a1.558,1.558,0,0,0,.78.375c-.316-1.86-.235-2.705.358-3.756a.12.12,0,1,1,.21.118c-.569,1.009-.639,1.786-.327,3.616a.116.116,0,0,1,0,.043,1.511,1.511,0,0,0,1.138-.488,2.757,2.757,0,0,0,.5-.8" transform="translate(-21.775 0)" fill="#fff"/>
      <path id="Tracé_41" data-name="Tracé 41" d="M17.4,17.253a.615.615,0,0,0,0-.87L8.791,7.777l0,0,0,0L.18,16.383a.614.614,0,0,0,0,.87l1.268,1.268a.615.615,0,0,0,.87,0l6.036-6.036a.615.615,0,0,1,.87,0l6.035,6.036a.615.615,0,0,0,.87,0Z" transform="translate(0 -5.019)" fill="#fff"/>
      <path id="Tracé_42" data-name="Tracé 42" d="M16.047,21.415a.341.341,0,0,0-.482,0l-4.69,4.69v4.385a1.92,1.92,0,0,0,1.92,1.92h1.492V28.738a.852.852,0,0,1,.852-.852h1.335a.852.852,0,0,1,.852.852v3.673h1.492a1.92,1.92,0,0,0,1.92-1.92V26.105Z" transform="translate(-7.017 -13.755)" fill="#fff"/>
    </g>
  </g>
</svg>
