<svg id="Composant_2_4" data-name="Composant 2 – 4" xmlns="http://www.w3.org/2000/svg" xmlns:xlink="http://www.w3.org/1999/xlink" width="38" height="47" viewBox="0 0 38 47">
  <defs>
    <clipPath id="clip-path">
      <rect id="Rectangle_1102" data-name="Rectangle 1102" width="38" height="47" transform="translate(0 0.5)" fill="#7dce24"/>
    </clipPath>
    <clipPath id="clip-path-2">
      <rect id="Rectangle_1094" data-name="Rectangle 1094" width="15.521" height="19.5" fill="#fff"/>
    </clipPath>
  </defs>
  <g id="Groupe_22" data-name="Groupe 22" transform="translate(0 -0.5)">
    <g id="Groupe_21" data-name="Groupe 21" clip-path="url(#clip-path)">
      <path id="Tracé_57" data-name="Tracé 57" d="M19,0A19.022,19.022,0,0,0,0,18.987c-.068,15.308,18.278,28,19,28.513,0,0,19.068-13.205,19-28.5A19.023,19.023,0,0,0,19,0" transform="translate(0)" fill="#7dce24"/>
    </g>
  </g>
  <g id="Groupe_23" data-name="Groupe 23" transform="translate(11 8)">
    <g id="Groupe_1" data-name="Groupe 1" transform="translate(0 0)" clip-path="url(#clip-path-2)">
      <path id="Tracé_8" data-name="Tracé 8" d="M0,49.679c0-5.133,4.921-6.713,6.622-2.1,2.035-2.855,3.766,0,3.766,0,0-1.276,5.133-4.678,5.133,2.1Z" transform="translate(0 -30.179)" fill="#fff"/>
      <path id="Tracé_9" data-name="Tracé 9" d="M28.127,13.28c-2.424.757-8.687.579-8.716,7.788h0v5.273h.547V21.1c8.251-.3,7.636-7.282,8.17-7.817m-4.137,2.9c-.2.13-.393.279-.6.427s-.4.322-.618.479-.408.345-.606.524-.4.361-.568.56a7.438,7.438,0,0,0-.51.578,6.361,6.361,0,0,0-.433.578,6.143,6.143,0,0,0-.352.549c-.1.179-.19.342-.275.488-.068.154-.128.288-.177.4-.067.148-.117.25-.144.3h-.022c0-.057.009-.172.026-.34.013-.124.024-.277.053-.451s.093-.36.157-.568a3.644,3.644,0,0,1,.262-.651,4.036,4.036,0,0,1,.387-.685,5.373,5.373,0,0,1,.5-.673,7.605,7.605,0,0,1,.6-.625c.217-.191.44-.376.668-.546s.461-.322.7-.454a6.47,6.47,0,0,1,.683-.364c.218-.113.437-.192.635-.273a5.988,5.988,0,0,1,1.373-.367s-.49.291-1.185.739c-.171.118-.359.235-.552.371" transform="translate(-13.062 -8.937)" fill="#fff"/>
      <path id="Tracé_10" data-name="Tracé 10" d="M.494,19.122c1.2.21,4.719.212,5.629,5.907C2.207,25.3.494,19.122.494,19.122" transform="translate(-0.332 -12.868)" fill="#fff"/>
      <path id="Tracé_11" data-name="Tracé 11" d="M11.746,7.168c-.033-.163-.068-.338-.1-.524s-.1-.375-.139-.575-.107-.4-.15-.611a3.869,3.869,0,0,0-.169-.623l-.195-.614c-.036-.1-.058-.2-.1-.3l-.121-.281c-.082-.183-.149-.368-.222-.539-.092-.158-.172-.313-.248-.458a2.834,2.834,0,0,0-.233-.376,2.376,2.376,0,0,0-.2-.28c-.062-.071-.106-.138-.145-.174l-.058-.058a1.423,1.423,0,0,1,.272.149,1.684,1.684,0,0,1,.286.223,2.073,2.073,0,0,1,.331.333c.109.133.227.278.346.438.1.167.2.348.3.538a2.969,2.969,0,0,1,.275.6l.225.642a3.977,3.977,0,0,1,.159.658c.045.218.074.436.111.645a3.706,3.706,0,0,1,.07.605c.008.194.008.377.007.546,0,.225,0,.422-.011.588C14.393,2.293,10.061.725,8.7,0c0,0-1.7,6.169,3.177,7.76-.041-.166-.087-.365-.132-.592" transform="translate(-5.663 0)" fill="#fff"/>
    </g>
  </g>
</svg>
